<?xml version="1.0" standalone="no"?>
<!DOCTYPE svg PUBLIC "-//W3C//DTD SVG 20010904//EN"
 "http://www.w3.org/TR/2001/REC-SVG-20010904/DTD/svg10.dtd">
<svg version="1.0" xmlns="http://www.w3.org/2000/svg"
 width="889.000000pt" height="810.000000pt" viewBox="0 0 889.000000 810.000000"
 preserveAspectRatio="xMidYMid meet">

<g transform="translate(0.000000,810.000000) scale(0.100000,-0.100000)"
fill="#000000" stroke="none">
<path d="M3606 7804 c-239 -53 -476 -209 -596 -391 l-45 -68 -120 0 c-116 0
-122 -1 -189 -34 -89 -43 -158 -112 -199 -199 -30 -62 -32 -75 -32 -173 0
-104 1 -107 42 -191 118 -237 416 -371 662 -297 35 10 44 10 51 0 16 -27 52
-291 57 -427 l6 -140 -45 -27 c-76 -44 -199 -140 -286 -221 -157 -149 -279
-314 -368 -500 -128 -267 -155 -515 -86 -786 63 -246 133 -390 497 -1010 183
-311 320 -569 309 -579 -11 -10 -193 -45 -314 -62 -112 -15 -393 -15 -500 0
-420 59 -772 264 -900 524 -58 118 -73 200 -67 377 5 140 24 300 37 300 3 0
20 -45 38 -99 26 -80 40 -106 68 -130 57 -51 131 -36 174 34 44 71 19 169
-135 529 l-47 109 33 71 c56 122 49 220 -24 303 -45 51 -95 73 -169 73 l-63 0
-35 68 c-19 37 -98 173 -176 302 -78 130 -144 244 -148 255 -4 14 7 41 34 85
58 94 74 154 67 264 -14 247 -186 515 -397 621 -72 37 -179 46 -245 20 -202
-76 -346 -349 -307 -578 20 -116 71 -207 171 -307 130 -130 243 -180 406 -180
73 0 84 -3 104 -24 29 -30 124 -205 263 -482 l110 -220 -10 -48 c-16 -75 0
-105 38 -71 15 14 19 10 42 -48 l25 -64 -39 -41 c-27 -29 -38 -50 -38 -72 0
-38 -40 -119 -84 -168 -43 -48 -56 -74 -56 -111 0 -48 -38 -132 -77 -173 -31
-31 -37 -46 -41 -91 -3 -34 0 -57 7 -61 21 -13 13 -90 -14 -126 -44 -60 -45
-132 -2 -187 13 -16 28 -60 38 -107 14 -70 14 -83 1 -109 -35 -71 16 -188 96
-217 34 -13 52 -30 96 -93 30 -43 57 -93 60 -111 13 -70 90 -146 148 -146 29
0 138 -101 138 -127 0 -31 55 -108 94 -132 36 -23 75 -29 111 -18 12 4 29 -1
44 -12 l24 -18 -101 -111 c-172 -187 -223 -217 -362 -210 -80 4 -94 8 -191 55
-171 84 -279 187 -314 300 -29 91 -3 191 79 305 25 36 46 68 46 72 0 14 -45 4
-94 -20 -163 -82 -256 -217 -256 -372 0 -36 -7 -71 -21 -100 -19 -39 -20 -48
-9 -85 12 -44 55 -97 76 -97 18 0 90 -133 75 -138 -65 -22 -46 -125 31 -172
36 -22 88 -26 105 -9 9 9 25 0 62 -32 45 -39 51 -49 51 -83 0 -90 144 -166
231 -121 23 13 37 14 67 5 69 -19 172 -12 230 15 37 17 71 25 110 25 98 0 193
66 208 145 5 31 19 45 87 95 44 33 83 58 85 55 2 -2 -10 -48 -27 -102 -41
-131 -58 -216 -82 -418 -24 -211 -34 -268 -59 -341 -42 -120 -98 -186 -200
-233 -107 -49 -278 -28 -440 54 -59 30 -70 31 -70 6 0 -25 74 -90 185 -162
276 -181 532 -196 730 -44 29 22 67 42 92 46 24 5 54 16 67 25 38 24 76 109
76 168 0 37 11 76 39 141 21 50 46 116 55 148 15 52 20 59 61 78 55 26 82 68
96 147 9 51 8 66 -6 96 l-17 36 36 49 c20 27 62 73 93 101 44 40 61 50 77 44
42 -14 119 -16 162 -4 57 16 122 63 135 97 5 14 12 24 14 21 3 -2 -16 -44 -41
-94 -68 -136 -88 -238 -89 -459 0 -121 6 -226 19 -322 25 -191 20 -290 -19
-362 -59 -108 -148 -153 -338 -170 -54 -4 -100 -11 -104 -14 -41 -42 257 -104
450 -94 128 6 199 32 272 99 33 30 62 48 78 48 36 0 76 37 103 94 27 58 30
102 10 149 -11 27 -11 44 0 102 7 39 16 105 19 147 5 55 11 78 20 78 20 0 63
56 75 98 15 56 12 101 -11 149 l-21 43 31 48 c59 90 76 105 99 93 33 -18 79
-13 130 13 57 29 96 68 116 118 15 35 19 37 103 57 49 11 149 28 225 37 129
17 141 17 224 0 101 -20 104 -21 104 -47 0 -27 68 -99 115 -120 44 -21 106
-24 135 -9 16 9 25 2 58 -42 22 -29 47 -68 57 -86 15 -32 15 -35 -1 -53 -22
-25 -30 -111 -14 -169 8 -29 26 -58 51 -82 39 -37 39 -38 50 -145 6 -60 15
-125 20 -146 7 -27 6 -48 -5 -80 -32 -95 35 -240 111 -239 20 0 45 -16 85 -53
79 -74 143 -97 283 -102 190 -9 482 54 442 94 -4 3 -50 10 -104 14 -54 5 -129
19 -168 30 -59 17 -78 29 -122 74 -37 39 -56 68 -67 106 -21 68 -21 211 0 387
31 266 9 551 -55 692 -11 24 -19 46 -18 47 2 1 30 -12 62 -28 53 -27 68 -30
125 -26 36 2 72 7 81 11 20 9 128 -88 174 -154 24 -35 26 -44 17 -66 -15 -32
-15 -111 -1 -155 15 -44 54 -86 94 -101 28 -10 35 -20 54 -82 13 -39 38 -107
56 -151 18 -44 35 -105 38 -136 10 -111 73 -189 151 -189 16 0 47 -16 76 -39
178 -141 404 -146 650 -14 118 64 256 168 269 204 13 38 7 37 -98 -10 -119
-53 -161 -64 -266 -65 -77 0 -98 4 -145 26 -113 53 -174 131 -210 271 -10 42
-30 169 -45 283 -27 216 -52 345 -85 445 -11 32 -20 61 -20 64 0 2 26 -15 59
-40 46 -35 60 -52 65 -80 15 -79 110 -145 208 -145 39 0 73 -8 110 -25 58 -27
161 -34 230 -15 30 9 44 8 67 -5 58 -29 138 -11 193 45 31 31 38 45 38 76 0
34 6 44 51 83 37 32 53 41 62 32 17 -17 69 -13 105 9 66 41 96 137 50 161 -13
6 -24 13 -26 14 -7 6 71 135 82 135 7 0 25 13 41 30 36 37 47 125 21 165 -11
16 -16 47 -16 92 -1 115 -59 229 -154 302 -87 67 -196 113 -196 82 0 -5 11
-22 24 -38 73 -88 121 -210 113 -284 -12 -97 -79 -194 -191 -273 -127 -91
-245 -136 -351 -136 -104 0 -156 28 -283 157 l-104 105 40 36 c22 20 46 51 55
67 9 19 49 52 105 89 80 51 96 58 145 59 45 2 62 7 93 33 52 42 73 73 81 118
8 48 88 127 140 139 67 14 123 77 123 138 0 35 91 168 115 168 31 1 83 37 100
70 20 40 19 98 -3 126 -16 20 -17 30 -8 87 8 45 19 74 39 97 38 46 38 108 -1
148 -39 39 -50 95 -22 123 38 38 13 135 -43 161 -29 13 -67 120 -60 167 7 43
-13 87 -50 114 -43 31 -98 153 -85 190 13 36 -16 96 -59 123 -22 14 -36 35
-47 69 -21 65 -20 85 7 114 18 19 22 35 22 84 0 56 2 62 35 89 68 57 142 58
236 3 22 -13 44 -21 47 -17 14 13 6 51 -18 87 -14 20 -25 39 -25 41 0 2 278 5
618 7 339 2 624 7 634 11 24 12 41 62 34 99 -9 44 -33 68 -71 68 l-32 0 -11
118 c-32 329 -166 610 -398 837 -175 171 -440 306 -677 346 -69 12 -77 15 -88
41 -16 39 -62 76 -105 84 -68 13 -128 -20 -169 -90 -7 -12 -37 -22 -95 -32
-181 -30 -392 -117 -533 -217 -329 -235 -527 -583 -562 -989 l-7 -78 -33 0
c-66 0 -105 -35 -105 -96 0 -31 24 -80 43 -87 7 -3 228 -7 490 -8 262 -2 477
-4 477 -5 0 -1 -15 -17 -34 -37 -130 -138 -125 -312 20 -822 155 -539 143
-735 -54 -934 -179 -180 -461 -315 -789 -377 -239 -45 -561 -45 -838 2 -138
23 -130 15 -94 87 52 103 168 307 345 607 342 581 444 827 460 1115 19 350
-141 710 -456 1025 -141 140 -265 233 -421 315 -134 69 -215 100 -354 135
l-110 27 -28 74 c-34 87 -80 281 -101 430 -22 149 -25 139 37 139 182 1 381
120 458 275 105 213 14 466 -206 570 -97 45 -151 56 -269 54 l-102 -1 -66 46
c-82 58 -170 98 -274 126 -106 29 -329 36 -428 14z m394 -66 c80 -15 199 -63
269 -108 33 -21 97 -74 141 -116 44 -42 82 -75 85 -72 6 6 -33 78 -56 104 -10
11 -19 23 -19 27 0 4 36 7 79 7 140 0 249 -48 345 -150 71 -76 100 -147 101
-245 0 -72 -4 -88 -34 -150 -43 -87 -109 -153 -201 -199 -125 -62 -255 -78
-400 -50 -31 7 -34 6 -22 -9 8 -9 35 -23 61 -32 l48 -15 -5 -78 c-7 -133 42
-357 114 -521 29 -64 25 -72 -49 -100 -165 -61 -553 -104 -1034 -114 l-123 -2
-5 120 c-7 151 -39 373 -70 479 -13 44 -22 82 -21 83 1 2 18 -2 37 -7 18 -6
79 -10 135 -10 116 0 228 24 306 67 74 40 218 189 218 226 0 4 -34 -20 -75
-53 -171 -135 -294 -184 -460 -184 -153 0 -258 41 -385 152 -41 35 -76 60 -78
54 -6 -18 77 -119 127 -156 25 -19 63 -42 84 -52 35 -17 57 -55 57 -102 0 -19
-56 -39 -127 -47 -171 -20 -374 73 -478 220 -62 87 -88 161 -89 255 -1 66 3
84 32 142 64 130 189 198 366 198 62 0 77 -3 73 -14 -3 -7 -8 -35 -12 -62 l-6
-49 30 53 c78 138 230 303 350 380 188 122 462 173 691 130z m3436 -1254 c14
-9 29 -25 35 -35 9 -18 4 -19 -96 -19 -102 0 -105 1 -95 20 25 46 109 64 156
34z m-6711 -134 c138 -67 298 -286 351 -480 23 -85 23 -209 0 -278 -21 -62
-83 -148 -127 -176 -130 -82 -356 93 -490 378 -55 117 -72 199 -67 321 5 116
29 180 84 222 79 60 146 63 249 13z m6895 5 c401 -88 731 -351 888 -710 61
-140 101 -322 102 -469 l0 -59 -862 6 c-475 4 -1040 7 -1256 7 l-393 0 6 78
c10 127 26 212 57 312 133 419 489 739 923 829 55 11 114 22 130 25 65 9 332
-3 405 -19z m-7238 -107 c-38 -90 -37 -227 3 -348 67 -207 217 -418 354 -498
39 -23 43 -27 24 -30 -45 -7 -141 19 -223 60 -117 57 -202 142 -258 258 -86
178 -79 333 21 497 29 48 92 123 102 123 1 0 -9 -28 -23 -62z m4289 -257 c140
-35 246 -76 364 -140 l90 -48 7 -74 c4 -41 14 -94 23 -119 63 -178 265 -320
454 -320 35 0 42 -4 69 -47 56 -87 131 -257 158 -358 21 -79 27 -130 31 -245
5 -131 2 -156 -22 -265 -46 -208 -138 -414 -340 -760 -295 -507 -341 -588
-494 -878 -88 -168 -186 -347 -217 -398 -62 -102 -109 -197 -101 -205 3 -3 18
12 33 33 16 21 32 41 37 44 4 3 72 11 149 19 107 9 143 10 146 1 10 -29 57
-71 97 -87 89 -34 190 4 215 82 l12 36 82 -7 c340 -29 597 -146 743 -340 68
-90 71 -98 39 -135 -61 -73 0 -231 99 -256 30 -7 35 -32 70 -312 27 -224 44
-302 81 -377 34 -68 116 -149 177 -176 103 -43 263 -34 408 25 35 14 64 24 66
22 8 -8 -160 -113 -242 -152 -236 -112 -431 -95 -613 54 -63 51 -156 181 -207
286 -24 50 -69 169 -100 263 -78 240 -119 318 -219 418 -114 115 -221 166
-400 195 l-69 11 -88 93 c-99 105 -198 177 -323 237 -95 46 -138 48 -61 4 112
-65 259 -169 324 -230 74 -70 159 -186 190 -258 l19 -45 -45 -17 c-59 -23 -83
-62 -83 -135 0 -95 60 -160 148 -160 l42 0 0 -97 c0 -54 -7 -152 -15 -218 -33
-264 -35 -306 -25 -372 29 -179 142 -266 364 -280 105 -7 94 -14 -59 -38 -129
-20 -276 -16 -350 9 -72 26 -148 87 -196 157 -83 122 -120 255 -143 509 -26
277 -70 396 -192 517 -75 74 -196 137 -299 157 -38 7 -63 16 -55 19 8 3 22 8
30 10 34 12 -144 6 -265 -8 -377 -44 -513 -93 -657 -236 -127 -125 -166 -234
-188 -519 -13 -172 -39 -282 -92 -383 -91 -174 -213 -247 -413 -247 -84 1
-299 31 -312 44 -4 3 20 6 53 6 129 1 265 48 319 112 76 90 88 190 54 448 -26
200 -30 415 -10 530 12 67 29 124 60 203 l11 29 35 -31 c30 -26 44 -31 88 -31
158 0 227 209 96 289 l-30 18 93 74 c51 40 136 102 188 136 106 71 105 81 -3
27 -116 -59 -215 -131 -317 -230 l-95 -92 -80 -11 c-211 -29 -369 -120 -480
-276 -55 -76 -98 -177 -158 -367 -100 -312 -227 -497 -407 -592 -187 -98 -408
-63 -657 105 -92 62 -97 72 -22 42 127 -51 271 -66 366 -38 110 33 206 132
246 255 17 51 47 232 62 376 l7 60 42 12 c74 19 129 92 130 174 1 58 -27 99
-77 113 l-35 10 23 60 c56 151 123 246 234 335 150 120 361 193 622 216 l77 6
12 -36 c37 -113 206 -127 294 -24 l35 41 111 -12 c113 -12 153 -22 165 -40 3
-6 10 -11 15 -11 14 0 -4 40 -66 148 -31 53 -141 259 -244 457 -103 198 -270
504 -370 680 -101 176 -212 375 -247 441 l-63 122 44 26 c60 35 89 78 89 131
0 49 -24 88 -70 110 -35 17 -99 20 -137 5 -25 -9 -26 -7 -40 43 -54 188 -47
444 17 632 114 334 389 657 729 856 l67 39 100 -6 c95 -7 116 -13 90 -30 -23
-14 -51 -95 -45 -129 13 -66 89 -124 162 -125 86 0 183 66 205 140 12 38 7 69
-17 126 -3 7 39 15 118 23 257 26 470 76 559 130 19 12 39 21 45 21 7 0 63
-13 125 -29z m-873 -166 c55 -64 -2 -170 -112 -205 -106 -34 -202 42 -176 138
16 63 54 90 130 95 102 6 132 1 158 -28z m1454 -112 c130 -98 377 -360 362
-385 -15 -24 -139 3 -229 50 -100 52 -209 206 -216 302 -3 53 0 80 10 80 5 0
38 -21 73 -47z m-4148 -508 c91 -147 256 -430 256 -438 0 -3 -15 -16 -34 -31
l-34 -26 -90 173 c-49 94 -129 244 -177 331 l-87 160 28 23 29 23 8 -32 c5
-18 50 -100 101 -183z m-186 153 c42 -53 365 -672 355 -682 -4 -3 -61 101
-128 231 -114 226 -228 427 -246 439 -12 7 -12 24 0 24 5 0 13 -6 19 -12z
m7710 -274 c84 -5 94 -8 109 -30 14 -22 14 -26 0 -48 -15 -23 -24 -24 -149
-31 -73 -4 -690 -3 -1370 2 l-1237 8 -23 23 c-21 21 -22 24 -8 50 14 24 23 28
85 33 86 7 2464 1 2593 -7z m-1154 -187 c15 -19 26 -37 26 -40 0 -3 -19 0 -41
8 -68 24 -149 20 -194 -11 -51 -34 -71 -59 -102 -123 -37 -78 -30 -173 22
-296 58 -136 161 -447 182 -549 13 -67 18 -133 17 -251 0 -148 -2 -166 -27
-240 -110 -320 -408 -630 -787 -820 -52 -26 -155 -67 -228 -91 l-133 -43 -51
20 c-94 37 -398 109 -503 120 -72 7 -167 7 -311 0 -115 -6 -221 -11 -236 -11
-15 0 -28 -4 -28 -10 0 -5 10 -10 22 -10 12 0 35 -16 56 -40 40 -47 73 -66
141 -81 92 -19 214 18 289 88 36 35 38 35 101 29 77 -8 294 -63 416 -106 207
-73 310 -139 425 -276 98 -115 191 -198 259 -231 79 -39 194 -39 296 1 208 80
368 226 411 374 21 70 9 137 -41 235 -19 38 -35 70 -35 72 0 12 77 -44 117
-84 68 -68 96 -136 101 -246 3 -73 0 -102 -18 -155 -50 -151 -147 -275 -275
-355 -159 -99 -366 -131 -491 -76 -24 11 -113 69 -197 130 -301 216 -397 266
-557 292 -44 7 -102 26 -140 44 -168 83 -374 125 -619 125 -150 0 -396 -20
-499 -41 -30 -6 -55 -9 -57 -7 -2 2 29 60 71 128 41 68 104 180 141 249 36 69
67 127 67 128 1 1 44 -6 96 -17 169 -35 357 -52 543 -48 l175 3 10 -27 c26
-69 133 -53 180 26 28 48 83 55 148 21 88 -47 229 -27 317 46 40 33 77 95 77
128 0 14 30 39 101 86 184 120 297 261 334 416 39 165 13 351 -103 749 -84
284 -105 387 -106 505 -1 125 15 175 80 241 l52 54 241 0 240 0 25 -33z
m-5900 -167 c65 -42 101 -117 93 -199 -5 -53 -43 -161 -56 -161 -3 0 -23 33
-43 73 -64 123 -139 181 -211 163 -13 -3 -40 -22 -61 -42 -20 -20 -39 -34 -41
-32 -3 2 0 22 6 44 43 159 190 232 313 154z m-138 -159 c37 -17 46 -29 92
-122 92 -189 262 -617 262 -660 0 -33 -28 -78 -60 -94 -49 -25 -56 -20 -70 48
-13 69 -116 392 -161 504 -15 39 -53 128 -84 197 -67 153 -65 166 21 127z
m-55 -106 c99 -219 213 -530 249 -675 6 -25 14 -54 17 -65 5 -17 4 -18 -10 -7
-9 8 -35 71 -58 140 -47 143 -121 341 -203 546 -59 146 -63 160 -45 154 5 -2
28 -44 50 -93z m10 -205 c18 -41 47 -115 64 -163 l32 -88 -24 -122 c-100 -514
11 -815 385 -1042 41 -25 62 -44 62 -57 0 -54 63 -129 142 -169 82 -42 195
-32 243 21 32 35 108 23 131 -21 8 -16 29 -36 47 -45 l32 -17 -25 -8 c-14 -4
-86 -24 -160 -45 -74 -20 -159 -48 -189 -60 l-53 -24 -79 35 c-89 39 -238 127
-319 188 -250 191 -461 491 -521 743 -19 78 -21 109 -16 254 4 124 10 185 26
245 40 153 168 473 182 457 4 -4 22 -41 40 -82z m1305 3 c36 -23 49 -67 33
-110 -16 -41 -81 -98 -102 -90 -8 3 -28 41 -45 84 -48 127 -48 119 -5 130 43
12 88 6 119 -14z m4724 -207 c-1 -17 -4 -14 -20 14 -25 45 -25 61 0 31 11 -13
20 -33 20 -45z m-45 -46 c39 -91 105 -331 105 -381 0 -19 -10 -43 -25 -61 -37
-43 -35 -100 5 -140 30 -30 30 -30 19 -91 -9 -55 -14 -64 -42 -77 -60 -28 -97
-122 -68 -169 7 -10 -2 -32 -30 -73 -37 -54 -42 -58 -80 -58 -84 0 -143 -63
-141 -150 1 -43 -3 -51 -44 -91 -37 -36 -49 -43 -79 -41 -79 6 -185 -79 -185
-148 0 -23 -13 -36 -76 -79 -42 -28 -79 -51 -83 -51 -5 0 -16 9 -26 20 -38 42
-146 12 -208 -58 l-19 -21 -57 32 c-32 18 -59 36 -60 41 -1 5 44 26 101 46
470 166 878 540 998 915 28 88 39 320 20 446 -10 71 -42 199 -66 264 -18 49 8
2 41 -75z m-6219 23 c-8 -15 -15 -22 -16 -15 0 17 20 55 27 49 2 -3 -2 -18
-11 -34z m45 10 c-12 -20 -14 -14 -5 12 4 9 9 14 11 11 3 -2 0 -13 -6 -23z
m-30 -91 c-41 -132 -54 -245 -48 -400 6 -166 25 -256 81 -377 44 -95 146 -250
220 -335 133 -152 336 -307 511 -392 106 -50 104 -49 86 -56 -7 -2 -42 -24
-77 -48 l-64 -44 -40 26 c-25 16 -41 36 -45 54 -17 80 -120 159 -185 145 -25
-5 -37 0 -79 36 -42 37 -49 48 -54 90 -7 59 -25 95 -69 138 -28 28 -39 32 -76
30 -43 -3 -45 -2 -88 56 -39 55 -43 65 -44 119 0 77 -29 139 -80 171 -35 22
-39 29 -50 93 -12 66 -12 71 10 100 32 43 32 121 1 163 -21 28 -23 39 -17 98
3 36 15 100 26 141 23 82 90 263 96 258 2 -2 -5 -32 -15 -66z m6363 -188 c2
-56 -19 -52 -32 7 -16 70 -15 77 9 52 14 -13 22 -35 23 -59z m-6485 -19 c-14
-62 -24 -76 -34 -45 -7 23 1 55 22 88 22 35 26 20 12 -43z m6505 -197 c34 -49
8 -118 -44 -118 -18 0 -34 8 -44 22 -34 49 -8 118 44 118 18 0 34 -8 44 -22z
m-6491 -35 c42 -48 24 -153 -28 -153 -43 0 -70 82 -44 133 22 40 47 47 72 20z
m6452 -296 c20 -29 19 -56 -5 -94 -34 -56 -100 -56 -119 -1 -9 25 -8 38 6 67
30 60 86 73 118 28z m-6371 -107 c42 -50 47 -142 10 -157 -48 -18 -104 48
-104 122 0 71 49 88 94 35z m6124 -186 c55 -38 -3 -154 -77 -154 -89 0 -44
155 49 169 3 1 16 -6 28 -15z m-693 -71 c-20 -82 -115 -143 -232 -151 -61 -4
-77 -1 -105 16 -23 15 -28 22 -18 26 8 3 60 21 115 40 55 19 129 48 165 65 81
37 84 37 75 4z m-5166 -98 c34 -39 44 -68 39 -110 -10 -88 -122 -26 -135 75
-7 54 1 70 36 70 21 0 38 -10 60 -35z m644 -9 c62 -25 141 -52 177 -61 36 -9
67 -19 69 -21 2 -2 -16 -13 -40 -24 -84 -38 -193 -22 -260 39 -34 32 -80 111
-63 111 3 0 56 -20 117 -44z m1288 -108 c23 -46 79 -150 126 -231 47 -82 83
-151 80 -154 -3 -2 -61 3 -129 12 -67 9 -213 19 -323 22 -296 8 -470 -22 -670
-116 -58 -28 -99 -40 -150 -44 -175 -16 -269 -62 -582 -285 -101 -71 -201
-137 -224 -146 -66 -26 -155 -31 -246 -12 -224 45 -380 164 -479 362 l-49 99
0 115 c0 126 13 171 72 245 24 30 143 124 143 113 0 -3 -16 -36 -35 -76 -20
-39 -40 -96 -46 -125 -34 -169 147 -378 417 -484 101 -39 217 -39 296 0 66 32
166 122 258 232 116 138 239 214 465 288 137 45 292 83 378 92 65 7 66 7 100
-27 68 -69 197 -108 288 -89 69 15 103 35 140 81 21 26 40 40 56 40 13 0 23 5
23 10 0 6 -12 10 -27 10 -15 0 -122 5 -239 11 -147 7 -239 7 -305 0 -51 -6
-95 -9 -97 -6 -2 2 0 16 5 32 8 22 15 27 34 25 96 -11 605 54 676 87 2 1 21
-36 44 -81z m3667 0 c32 -32 -1 -114 -58 -143 -35 -18 -82 -19 -98 -3 -29 29
-4 96 51 136 34 24 86 29 105 10z m-3908 -97 l65 -6 -28 -28 c-40 -41 -87 -57
-169 -57 -82 0 -154 27 -197 74 l-24 26 144 -1 c79 -1 173 -4 209 -8z m2455
-21 c-39 -40 -121 -70 -196 -70 -68 0 -121 19 -162 58 l-29 27 59 6 c32 3 125
6 207 7 l150 2 -29 -30z m-3869 -36 c37 -18 84 -86 84 -122 0 -32 -28 -55 -59
-47 -75 18 -143 145 -93 174 23 14 29 14 68 -5z m4905 -84 c40 -22 16 -109
-42 -151 l-32 -22 -19 23 c-18 23 -18 23 11 41 26 16 51 47 51 63 0 17 -37 1
-67 -29 -28 -28 -38 -33 -49 -24 -21 17 -17 32 14 62 45 43 95 57 133 37z
m-3378 -146 c88 -8 94 -17 42 -62 -42 -37 -93 -49 -145 -33 -39 12 -90 61 -90
87 0 16 64 18 193 8z m2147 1 c0 -15 -25 -53 -47 -69 -28 -21 -98 -32 -137
-22 -31 8 -86 53 -86 71 0 10 17 15 53 18 85 6 217 7 217 2z m-4682 -157 c22
-73 14 -88 -18 -35 -19 31 -27 87 -13 100 9 9 8 10 31 -65z m7009 15 c-4 -40
-29 -83 -47 -83 -4 0 2 31 13 69 23 76 42 84 34 14z m-5378 -7 c-51 -49 -103
-82 -124 -79 -13 3 -48 -2 -78 -11 -41 -12 -65 -27 -95 -60 -50 -54 -61 -90
-40 -127 l16 -27 -68 -51 -67 -51 -32 16 c-60 30 -160 -3 -219 -71 -33 -37
-42 -61 -39 -109 2 -25 -3 -31 -38 -43 -45 -17 -142 -22 -196 -10 -27 5 -39
14 -43 31 -17 69 -108 123 -192 113 -44 -5 -47 -3 -105 51 -33 30 -69 73 -80
95 -11 21 -16 37 -11 33 5 -3 32 -21 60 -40 113 -75 288 -123 417 -113 89 7
129 26 295 143 292 205 412 273 531 298 63 14 116 20 108 12z m3976 -70 c50
-24 138 -77 197 -117 401 -276 400 -276 548 -266 162 11 323 81 432 187 43 43
61 56 52 39 -7 -15 -27 -37 -44 -49 -17 -12 -39 -38 -49 -58 -10 -21 -46 -62
-78 -93 -58 -55 -61 -57 -105 -52 -25 3 -62 0 -83 -7 -49 -16 -102 -64 -110
-100 -5 -24 -13 -31 -43 -37 -62 -13 -145 -8 -196 11 -46 18 -48 19 -41 52 19
102 -158 219 -256 170 l-32 -16 -68 51 c-66 51 -67 52 -52 75 42 65 -38 167
-153 195 -44 11 -133 64 -134 81 0 15 132 -26 215 -66z m-4115 -48 c0 -16 -30
-48 -45 -48 -19 0 -65 -40 -65 -55 0 -9 6 -12 15 -9 18 7 19 3 3 -31 -13 -29
-25 -31 -56 -9 -31 22 -28 58 11 100 41 45 137 82 137 52z m4079 -13 c36 -18
81 -71 81 -94 0 -9 -6 -24 -12 -33 -11 -13 -20 -4 -65 63 -53 80 -54 90 -4 64z
m-5399 -119 c33 -36 33 -37 7 -21 -15 10 -35 32 -44 49 -8 17 -11 27 -7 21 5
-5 25 -27 44 -49z m2394 -26 c33 -12 66 -66 66 -106 0 -62 -82 -144 -144 -144
-38 0 -92 32 -101 59 -7 23 24 74 95 154 45 51 47 52 84 37z m4316 -10 c16
-16 18 -24 9 -47 -23 -60 -91 -100 -124 -73 -33 27 -9 86 49 121 39 24 41 24
66 -1z m-6697 -18 c34 -35 45 -83 23 -101 -38 -32 -126 30 -126 88 0 35 6 41
45 41 21 0 40 -9 58 -28z m5484 -186 c9 -36 14 -68 11 -72 -11 -11 -63 27 -88
64 -31 44 -33 106 -6 147 l20 30 23 -52 c12 -29 30 -82 40 -117z m-3359 92
c-22 -35 -95 -68 -150 -68 -59 0 -69 14 -26 36 36 20 142 52 172 53 17 1 17
-1 4 -21z m2465 7 c81 -21 152 -56 135 -66 -44 -28 -174 9 -206 59 -18 27 -10
28 71 7z m-3636 -36 c21 -18 15 -65 -12 -97 -51 -60 -146 -81 -186 -41 -71 71
119 203 198 138z m4818 2 c46 -21 95 -73 95 -102 0 -10 -9 -28 -20 -39 -58
-58 -216 21 -208 104 5 53 63 69 133 37z m-4536 -96 c52 -51 16 -171 -62 -208
-47 -23 -57 -21 -57 7 0 28 37 214 46 227 8 14 45 1 73 -26z m-938 14 c37 -13
75 -43 91 -72 7 -13 5 -25 -7 -43 -32 -49 -149 -20 -182 46 -14 29 -2 57 30
70 29 12 29 12 68 -1z m6077 0 c16 -5 32 -19 35 -29 20 -76 -145 -152 -188
-86 -12 18 -14 30 -7 43 15 28 54 59 87 71 39 14 37 14 73 1z m-2584 -82 c65
-36 77 -52 48 -61 -27 -9 -98 21 -122 52 -42 53 -11 56 74 9z m731 -19 c18
-63 36 -188 29 -200 -10 -16 -76 -8 -105 13 -39 27 -59 69 -59 119 0 72 36
119 92 120 25 0 29 -6 43 -52z m-1592 -19 c-10 -18 -34 -40 -53 -50 -34 -19
-100 -26 -100 -11 0 15 131 91 158 92 11 0 9 -8 -5 -31z m-1263 -155 c0 -49
-11 -76 -43 -111 -37 -41 -48 -29 -28 30 51 145 71 168 71 81z m3350 10 c27
-61 51 -144 42 -144 -19 0 -55 36 -68 66 -20 47 -18 124 2 124 2 0 12 -21 24
-46z m-951 -201 c19 -108 19 -114 7 -110 -24 8 -56 71 -56 109 0 42 16 82 29
73 5 -2 14 -35 20 -72z m-1448 3 c7 -14 9 -40 5 -59 -6 -34 -40 -87 -55 -87
-4 0 -4 26 0 58 13 111 28 137 50 88z m-1211 -410 c-11 -33 -76 -103 -87 -92
-3 2 16 34 42 71 26 36 50 64 52 61 3 -3 0 -20 -7 -40z m3901 -53 c33 -47 27
-55 -15 -22 -28 22 -49 56 -60 99 -7 24 -6 24 18 -5 15 -16 40 -49 57 -72z
m-1125 -169 c18 -43 33 -79 31 -80 -1 -1 -9 3 -18 9 -30 22 -59 81 -59 121 0
50 5 45 46 -50z m-1677 3 c-9 -34 -53 -87 -71 -87 -5 0 2 19 15 43 14 23 30
60 37 82 12 35 14 37 21 18 4 -12 4 -37 -2 -56z"/>
<path d="M4189 6508 c-20 -22 -21 -30 -16 -143 7 -159 7 -159 73 -152 30 3 59
9 65 13 19 11 5 183 -19 237 -19 42 -45 67 -71 67 -6 0 -20 -10 -32 -22z m72
-52 c24 -55 46 -193 33 -206 -5 -5 -25 -11 -44 -12 -35 -3 -35 -3 -42 47 -8
65 -10 179 -2 199 11 29 35 17 55 -28z"/>
<path d="M3811 6474 c-25 -32 -35 -97 -26 -172 10 -88 24 -130 43 -136 19 -6
109 7 119 17 7 7 -14 188 -28 239 -9 36 -49 78 -75 78 -7 0 -22 -12 -33 -26z
m68 -42 c6 -15 18 -72 26 -126 18 -110 16 -116 -42 -116 -27 0 -34 5 -40 28
-12 45 -9 205 5 229 15 27 36 21 51 -15z"/>
<path d="M3448 6450 c-34 -20 -51 -93 -45 -194 7 -125 14 -136 80 -136 80 0
81 1 74 127 -8 167 -47 239 -109 203z m71 -148 c19 -152 16 -162 -45 -162 -36
0 -47 38 -41 153 3 77 8 101 23 118 l19 21 16 -21 c9 -11 21 -56 28 -109z"/>
<path d="M4864 5611 c-17 -10 -37 -33 -44 -51 -12 -29 -11 -37 6 -69 39 -72
126 -101 194 -66 36 19 50 43 50 88 0 90 -123 149 -206 98z"/>
<path d="M3680 5490 c-54 -54 23 -120 88 -74 24 17 30 62 10 82 -19 19 -76 14
-98 -8z"/>
<path d="M3508 5469 c-22 -12 -24 -57 -3 -65 25 -10 63 5 70 27 12 38 -28 61
-67 38z"/>
<path d="M5041 5332 c-16 -30 13 -64 51 -60 43 4 58 31 34 57 -24 26 -72 28
-85 3z"/>
<path d="M5340 5191 c-145 -77 -64 -270 113 -271 107 0 178 82 148 173 -31 94
-171 147 -261 98z m164 -25 c94 -39 103 -156 16 -201 -63 -32 -176 -7 -214 47
-18 25 -21 90 -6 118 25 47 133 66 204 36z"/>
<path d="M3791 4743 c-95 -29 -179 -136 -188 -243 -3 -33 -3 -60 0 -60 3 0 28
15 56 34 48 33 147 76 174 76 7 0 29 5 50 11 34 9 37 13 36 47 0 20 -8 62 -17
92 -20 64 -29 67 -111 43z"/>
<path d="M4469 4693 c-20 -52 -40 -125 -36 -130 3 -2 38 -9 79 -14 43 -6 98
-22 134 -39 34 -17 65 -30 69 -30 12 0 -5 73 -28 112 -23 42 -73 79 -147 108
-28 11 -53 20 -56 20 -2 0 -9 -12 -15 -27z"/>
<path d="M2620 4493 c-44 -16 -53 -74 -16 -98 29 -20 71 -11 91 18 20 29 19
43 -5 67 -20 20 -41 24 -70 13z"/>
<path d="M3805 4471 c-90 -24 -187 -110 -231 -205 -73 -159 -69 -335 11 -498
50 -104 111 -170 193 -210 161 -80 331 -18 417 153 l26 51 35 -49 c150 -211
426 -161 550 101 30 63 36 88 41 168 12 209 -85 378 -244 424 -129 37 -257
-18 -348 -150 l-38 -56 -26 50 c-43 82 -114 155 -184 190 -67 33 -148 45 -202
31z m171 -51 c247 -107 320 -561 124 -774 -112 -122 -272 -116 -394 14 -166
177 -180 522 -30 689 85 95 189 119 300 71z m670 -66 c101 -62 156 -173 158
-319 1 -120 -27 -212 -92 -297 -134 -177 -357 -159 -452 37 -17 35 -20 53 -14
96 l7 53 14 -47 c35 -121 153 -86 153 46 0 78 -28 117 -85 117 -25 0 -64 -41
-66 -69 -1 -29 -16 34 -23 102 -7 60 -5 71 19 119 48 96 109 156 190 186 53
20 138 9 191 -24z m-306 -364 c16 -30 3 -62 -23 -58 -25 3 -35 41 -17 64 17
19 27 18 40 -6z m-22 -97 c-4 -22 -22 -20 -26 1 -2 10 3 16 13 16 10 0 15 -7
13 -17z"/>
<path d="M3933 4035 c-72 -50 -61 -213 16 -244 104 -44 157 175 59 243 -28 20
-48 20 -75 1z m41 -58 c8 -21 6 -31 -6 -44 -25 -24 -48 -9 -48 30 0 19 3 37 7
41 14 14 38 0 47 -27z m-27 -101 c-4 -9 -11 -16 -17 -16 -11 0 -14 33 -3 44
11 10 26 -11 20 -28z"/>
<path d="M5297 3951 c-21 -179 -165 -408 -331 -525 -191 -136 -415 -202 -726
-213 -419 -15 -769 102 -926 310 -49 65 -120 203 -130 255 -7 32 -14 29 86 48
24 4 30 11 30 31 0 24 -2 25 -40 19 -84 -13 -152 -47 -212 -105 -39 -38 -58
-65 -58 -81 0 -23 2 -22 43 16 43 42 86 74 98 74 4 0 15 -24 24 -52 28 -84 91
-199 145 -263 27 -32 55 -75 61 -94 30 -94 116 -283 156 -346 53 -82 224 -255
303 -306 156 -102 343 -133 530 -89 150 36 205 59 291 121 45 32 84 57 86 55
2 -2 -3 -29 -12 -61 -9 -31 -15 -58 -13 -59 1 -2 34 -6 71 -10 77 -8 88 6 29
34 -30 14 -31 17 -26 60 7 57 -11 83 -55 83 -17 0 -45 -9 -60 -21 -25 -18 -31
-19 -41 -7 -7 8 -36 26 -66 41 -51 25 -54 28 -65 80 -14 61 -1 140 32 206 25
49 45 60 159 92 351 99 605 368 635 671 7 75 -9 109 -18 36z m-1799 -640 c87
-44 218 -82 362 -106 117 -20 448 -30 550 -17 41 5 76 8 78 7 2 -1 -4 -21 -13
-43 -15 -38 -20 -41 -63 -46 -224 -26 -535 -9 -860 46 -60 10 -64 12 -84 51
-23 47 -59 147 -52 147 2 0 40 -18 82 -39z m132 -195 c160 -28 333 -38 577
-34 l242 3 -7 -30 c-8 -43 -8 -94 1 -137 6 -27 4 -38 -4 -38 -6 0 -38 -12 -69
-26 -52 -23 -62 -25 -95 -14 -60 20 -168 15 -220 -10 -41 -20 -90 -66 -114
-107 -9 -17 -12 -17 -58 7 -101 53 -309 263 -360 364 l-25 49 24 -6 c13 -3 61
-13 108 -21z m944 -305 c30 -30 30 -31 11 -46 -79 -62 -267 -115 -405 -115
-72 0 -194 20 -208 35 -11 10 11 55 40 84 42 41 123 65 186 56 57 -8 129 -39
159 -67 31 -29 41 -14 15 22 -12 16 -22 31 -22 33 0 7 74 36 100 39 45 6 93
-10 124 -41z"/>
<path d="M2914 2165 c-11 -27 4 -45 36 -45 34 0 49 22 30 45 -16 19 -59 19
-66 0z"/>
<path d="M5391 2167 c-20 -24 -2 -48 33 -45 26 2 31 7 31 28 0 19 -6 26 -26
28 -14 2 -31 -3 -38 -11z"/>
<path d="M3033 2094 c-3 -9 0 -20 8 -24 18 -12 50 7 43 25 -8 20 -43 19 -51
-1z"/>
<path d="M5290 2091 c0 -16 6 -21 26 -21 33 0 30 33 -4 38 -17 3 -22 -2 -22
-17z"/>
<path d="M3339 1896 c-9 -20 -9 -29 1 -41 27 -33 75 -7 68 37 -5 35 -54 38
-69 4z"/>
<path d="M6100 1861 c0 -36 20 -53 57 -49 56 6 30 78 -29 78 -24 0 -28 -4 -28
-29z"/>
<path d="M5955 1810 c-9 -15 14 -40 36 -40 24 0 33 18 19 35 -14 17 -46 20
-55 5z"/>
<path d="M2131 1744 c-24 -30 -26 -45 -9 -62 17 -17 42 -15 61 6 20 22 22 53
5 70 -18 18 -35 14 -57 -14z"/>
<path d="M5247 1684 c-4 -4 -7 -16 -7 -26 0 -20 25 -25 36 -7 8 13 -19 43 -29
33z"/>
<path d="M5153 1653 c-19 -7 -16 -60 3 -67 25 -10 33 -7 44 15 9 16 8 25 -6
40 -18 20 -21 21 -41 12z"/>
<path d="M3301 1546 c-14 -17 -7 -36 14 -36 22 0 29 20 13 36 -13 13 -16 13
-27 0z"/>
<path d="M3057 1513 c-14 -13 -6 -33 13 -33 13 0 20 7 20 20 0 19 -20 27 -33
13z"/>
<path d="M6294 1405 c-7 -18 13 -45 33 -45 19 0 28 27 13 45 -16 19 -39 19
-46 0z"/>
<path d="M2030 1300 c-9 -16 -8 -22 5 -26 21 -8 39 10 32 30 -9 22 -24 20 -37
-4z"/>
<path d="M5304 1186 c-11 -28 1 -51 28 -54 31 -4 48 29 28 53 -16 19 -49 19
-56 1z"/>
<path d="M2022 1154 c-29 -20 -28 -77 1 -82 41 -8 74 57 45 86 -15 15 -19 15
-46 -4z"/>
<path d="M3037 1158 c-48 -37 -36 -111 19 -116 43 -4 77 26 77 68 0 51 -55 79
-96 48z"/>
<path d="M7090 3320 c-26 -26 -25 -55 1 -74 46 -32 124 37 89 78 -18 22 -66
20 -90 -4z"/>
<path d="M6703 2885 c-32 -23 -39 -66 -13 -87 26 -21 56 -12 84 25 39 53 -15
101 -71 62z"/>
<path d="M6570 2729 c-15 -27 -6 -49 19 -49 23 0 45 34 37 56 -8 21 -44 17
-56 -7z"/>
<path d="M6050 2577 c0 -21 11 -27 31 -16 27 14 23 29 -6 29 -14 0 -25 -6 -25
-13z"/>
<path d="M5032 2494 c-30 -21 -25 -56 9 -68 38 -13 78 0 91 30 11 22 9 28 -7
40 -25 19 -65 18 -93 -2z"/>
<path d="M5598 2483 c-23 -6 -31 -34 -14 -51 17 -17 64 -9 73 13 6 17 -14 46
-31 44 -6 -1 -18 -3 -28 -6z"/>
<path d="M1341 3251 c-24 -45 37 -119 77 -95 26 16 27 69 3 93 -26 26 -67 27
-80 2z"/>
<path d="M1760 2785 c-18 -22 -1 -73 31 -98 22 -15 30 -17 48 -8 25 14 27 41
6 80 -21 42 -62 54 -85 26z"/>
<path d="M1916 2634 c-4 -9 1 -28 9 -41 21 -31 51 -27 47 7 -5 45 -43 68 -56
34z"/>
<path d="M7502 3528 c-14 -14 -16 -44 -3 -52 16 -10 35 23 25 45 -7 16 -12 17
-22 7z"/>
<path d="M1020 3467 c0 -32 9 -57 21 -57 15 0 10 57 -6 70 -13 11 -15 8 -15
-13z"/>
<path d="M7438 3176 c-6 -14 -8 -32 -4 -42 6 -15 9 -14 26 6 11 13 20 31 20
42 0 26 -29 22 -42 -6z"/>
<path d="M1090 3065 c0 -13 10 -34 23 -45 l22 -21 3 21 c4 23 -22 70 -38 70
-6 0 -10 -11 -10 -25z"/>
<path d="M7207 2872 c-10 -10 -17 -28 -17 -40 0 -20 2 -21 20 -10 25 16 45 68
26 68 -7 0 -20 -8 -29 -18z"/>
<path d="M1350 2725 c0 -8 14 -29 30 -47 26 -27 30 -29 30 -11 0 22 -36 73
-51 73 -5 0 -9 -7 -9 -15z"/>
<path d="M3206 2494 c-21 -21 -20 -29 6 -54 36 -33 108 -20 108 20 0 42 -82
67 -114 34z"/>
<path d="M2680 2475 c-17 -20 -6 -43 25 -51 45 -11 75 35 36 56 -27 14 -46 13
-61 -5z"/>
<path d="M6911 2574 c-12 -15 -21 -34 -20 -43 0 -10 2 -12 6 -3 2 6 13 12 23
12 17 0 50 34 50 52 0 18 -40 6 -59 -18z"/>
<path d="M1646 2441 c-9 -14 34 -61 56 -61 14 0 18 5 14 16 -3 9 -6 17 -6 20
0 9 -59 33 -64 25z"/>
<path d="M7496 1779 c-31 -24 -35 -49 -6 -42 22 6 54 49 41 57 -5 3 -20 -4
-35 -15z"/>
<path d="M800 1788 c0 -19 21 -44 43 -51 37 -13 13 32 -30 57 -8 4 -13 2 -13
-6z"/>
<path d="M1686 1619 c-14 -11 -26 -26 -26 -34 0 -19 71 -1 88 22 7 10 18 17
23 15 6 -1 8 2 4 8 -11 17 -61 11 -89 -11z"/>
<path d="M6576 1615 c9 -14 28 -28 43 -31 14 -3 32 -7 39 -10 6 -2 12 3 12 11
0 21 -50 55 -82 55 -28 0 -28 0 -12 -25z"/>
<path d="M1107 1554 c-11 -11 40 -44 67 -44 32 0 33 14 4 34 -23 16 -60 21
-71 10z"/>
<path d="M7161 1547 c-35 -18 -38 -37 -6 -37 28 0 79 33 68 44 -10 10 -36 7
-62 -7z"/>
</g>
</svg>
