
<svg
   id="svg1"
   sodipodi:version="0.32"
   inkscape:version="0.38.1"
   width="80.000000pt"
   height="80.000000pt"
   sodipodi:docbase="/home/nicu/Desktop/weather"
   sodipodi:docname="cloud.svg"
   xmlns="http://www.w3.org/2000/svg"
   xmlns:inkscape="http://www.inkscape.org/namespaces/inkscape"
   xmlns:sodipodi="http://sodipodi.sourceforge.net/DTD/sodipodi-0.dtd"
   xmlns:xlink="http://www.w3.org/1999/xlink">
  <path
     style="fill:url(#linearGradient854);fill-rule:evenodd;stroke:#000000;stroke-width:1.2500000;stroke-dasharray:none;stroke-linejoin:round;"
     d="M 48.996171,37.251271 C 47.958668,32.143973 39.185631,24.658486 33.930828,26.057885 C 27.350244,27.875054 24.319102,33.750906 29.022229,38.180278 C 24.861109,35.364180 14.478948,32.941167 8.8516150,42.752305 C 5.3584330,50.061076 15.250525,54.633620 18.276730,54.093064 C 12.486132,53.396616 -1.7806601,65.306814 4.5717298,71.373662 C 12.398859,77.540434 30.328023,70.871946 31.115271,65.721140 C 29.368597,73.253219 49.289455,74.699245 49.782264,64.230844 C 48.360488,69.138884 62.574082,74.362572 69.331408,72.364112 C 77.800433,70.297826 76.782138,63.322187 75.780037,61.195189 C 82.294178,61.939711 92.493777,63.786015 97.011836,57.091162 C 100.16106,50.764622 98.288765,43.698338 94.234782,41.475620 C 89.817633,39.373843 84.991240,39.483372 79.361925,43.043469 C 83.828729,40.136070 81.073796,30.760619 76.597083,28.701006 C 71.495048,26.361815 65.365281,25.905286 59.859869,27.042626 C 55.323516,27.769206 48.144478,31.594752 48.996171,37.251271 z "
     id="path853"
     sodipodi:nodetypes="cccccccccccccccc" />
</svg>
